<svg width="400" height="410" viewBox="0 0 400 410" fill="none" xmlns="http://www.w3.org/2000/svg">
<g clip-path="url(#clip0_1_84)">
<path d="M71.9736 397.705H78.1017L81.018 374.068H71.9736V397.705Z" fill="#A0616A"/>
<path d="M69.9736 393.507L79.764 392.923V397.118L89.072 403.546C89.5318 403.863 89.878 404.32 90.0602 404.848C90.2424 405.376 90.251 405.948 90.0847 406.482C89.9185 407.015 89.5861 407.482 89.136 407.813C88.686 408.144 88.1418 408.322 87.5831 408.322H75.9273L73.9183 404.173L73.1338 408.322H68.7391L69.9736 393.507Z" fill="#2F2E41"/>
<path d="M120.986 397.705H127.114L130.031 374.068H120.986V397.705Z" fill="#A0616A"/>
<path d="M118.986 393.507L128.777 392.923V397.118L138.085 403.546C138.544 403.863 138.891 404.32 139.073 404.848C139.255 405.376 139.264 405.948 139.097 406.482C138.931 407.015 138.599 407.482 138.149 407.813C137.699 408.144 137.154 408.322 136.596 408.322H124.94L122.931 404.173L122.146 408.322H117.752L118.986 393.507Z" fill="#2F2E41"/>
<path d="M76.825 253.337L109.406 254.153V218.94L82.6434 219.073L76.825 253.337Z" fill="#A0616A"/>
<path d="M109.571 227.984L113.927 242.495L122.968 261.529L142.067 371.47L139.147 386.678L110.834 385.488L98.2238 291.225L98.0211 304.238L97.923 310.537C97.923 310.537 102.522 351.504 97.161 359.455C91.7998 367.406 97.0517 366.47 97.0517 366.47L96.7962 382.871L63.2488 383.109L70.6498 335.891C70.6498 335.891 74.4079 332.924 72.3972 329.941C70.3865 326.958 74.346 323.305 74.346 323.305L72.5702 286.444C72.5702 286.444 74.5364 280.077 72.2236 279.249C69.9107 278.422 71.9199 272.946 71.9199 272.946L71.5762 265.812L79.1865 237.035L109.571 227.984Z" fill="#2F2E41"/>
<path d="M78.0002 218.94L74.6692 208.947L72.29 205.616L71.3383 196.099C71.3383 170.404 77.0699 174.682 77.0699 174.682L84.5462 165.645L93.0519 165.379L99.7734 165.169L105.362 174.448L113.451 177.303L116.619 193.763L110.834 211.327L111.089 210.022C113.812 215.049 113.12 215.805 110.865 219.58L110.752 220.943C110.487 224.165 112.733 224.72 109.572 225.398C82.419 231.216 79.8331 242.853 76.6006 238.328C75.8808 237.32 78.9353 225.294 77.8936 225.398C75.0395 225.683 78.0002 218.94 78.0002 218.94Z" fill="#E6E6E6"/>
<path d="M94.6401 161.975C102.436 161.975 108.756 155.655 108.756 147.859C108.756 140.063 102.436 133.743 94.6401 133.743C86.844 133.743 80.5239 140.063 80.5239 147.859C80.5239 155.655 86.844 161.975 94.6401 161.975Z" fill="#A0616A"/>
<path d="M64.864 248.573L66.3096 198.846L75.7246 202.965L71.0308 248.392C71.7686 248.999 72.3037 249.816 72.5646 250.735C72.8255 251.653 72.7998 252.63 72.4909 253.534C72.182 254.437 71.6046 255.225 70.8359 255.792C70.0672 256.359 69.1438 256.678 68.1891 256.706C67.2344 256.734 66.2939 256.47 65.4932 255.949C64.6926 255.429 64.0699 254.676 63.7085 253.792C63.347 252.908 63.264 251.934 63.4705 251.002C63.677 250.069 64.1631 249.222 64.864 248.573Z" fill="#A0616A"/>
<path d="M76.9015 174.425L75.8066 174.771C72.881 175.695 70.326 177.527 68.5125 180.002C66.6989 182.476 65.7211 185.464 65.7211 188.532L63.6616 197.963C66.6452 203.082 71.0555 205.618 77.1957 205.024L76.9015 174.425Z" fill="#E6E6E6"/>
<path d="M141.259 191.59C141.26 190.893 141.105 190.205 140.806 189.575C140.507 188.946 140.071 188.391 139.531 187.951C138.99 187.512 138.359 187.198 137.682 187.033C137.005 186.868 136.3 186.856 135.617 186.998C134.935 187.139 134.293 187.432 133.738 187.853C133.183 188.274 132.729 188.814 132.409 189.432C132.088 190.051 131.91 190.734 131.887 191.43C131.864 192.126 131.996 192.819 132.274 193.458L123.042 208.005V199.28L112.628 200.406L114.086 215.956C114.203 217.2 114.714 218.375 115.545 219.309C116.375 220.243 117.483 220.888 118.706 221.148C119.928 221.409 121.202 221.273 122.342 220.759C123.482 220.245 124.428 219.381 125.042 218.293L137.521 196.181C138.577 195.962 139.525 195.386 140.206 194.55C140.887 193.713 141.259 192.668 141.259 191.59Z" fill="#A0616A"/>
<path d="M111.784 176.763L112.831 177.094C115.63 177.978 118.074 179.731 119.809 182.098C121.544 184.465 122.479 187.324 122.479 190.259L124.449 199.28C121.595 204.177 117.376 206.603 111.502 206.035L111.784 176.763Z" fill="#E6E6E6"/>
<path d="M76.5213 151.012C77.3097 148.011 77.606 144.87 78.745 141.984C79.8758 139.119 81.7914 136.63 84.2721 134.804C86.7528 132.977 89.6982 131.887 92.7702 131.659C95.8422 131.43 98.9164 132.072 101.64 133.511C104.364 134.95 106.627 137.128 108.169 139.794C109.521 141.958 110.091 144.519 109.784 147.052C109.335 149.807 107.51 152.426 108.081 155.158C108.464 156.986 109.844 158.406 110.94 159.918C112.037 161.43 112.902 163.429 112.112 165.121C111.254 166.959 108.872 167.502 106.851 167.33C104.83 167.157 102.806 166.505 100.812 166.871L101.762 163.148C99.3971 165.424 97.0325 167.7 94.668 169.976C94.9298 167.607 93.8293 165.335 93.0704 163.076C92.3115 160.817 91.9576 158.094 93.4613 156.246C94.3606 155.14 95.7461 154.582 96.983 153.874C98.2198 153.166 99.4472 152.105 99.5732 150.686C99.7291 148.93 98.1564 147.522 96.6119 146.673C95.0675 145.825 93.2888 145.113 92.4219 143.579C93.0441 144.915 93.6664 146.25 94.2886 147.586C92.2194 147.44 90.2255 146.75 88.5079 145.587C86.7903 144.424 85.4098 142.828 84.5057 140.961L83.6532 141.52C76.5647 149.469 85.6422 161.38 80.3207 165.547C82.6578 161.38 75.3073 155.633 76.5213 151.012Z" fill="#2F2E41"/>
<path d="M261.057 1.50543L131.547 38.9729C111.404 44.8003 99.7995 65.8531 105.627 85.9959L191.244 381.94C197.071 402.083 218.124 413.688 238.267 407.861L367.777 370.393C387.92 364.566 399.525 343.513 393.698 323.37L308.08 27.4258C302.253 7.28303 281.2 -4.3219 261.057 1.50543Z" fill="#3F3D56"/>
<path d="M262.046 4.92105L245.109 9.82072L246.802 15.6715C247.568 18.3198 247.251 21.1639 245.92 23.5783C244.589 25.9926 242.354 27.7794 239.705 28.5456L164.038 50.4362C161.39 51.2023 158.546 50.885 156.132 49.5542C153.717 48.2233 151.931 45.9879 151.164 43.3396L149.472 37.4888L132.536 42.3885C123.774 44.9339 116.381 50.8505 111.976 58.8404C107.572 66.8303 106.517 76.241 109.043 85.0078L194.66 380.952C197.205 389.713 203.122 397.107 211.112 401.511C219.101 405.915 228.512 406.97 237.279 404.445L366.789 366.978C375.55 364.432 382.944 358.516 387.348 350.526C391.752 342.536 392.807 333.125 390.282 324.358L304.665 28.414C302.119 19.6529 296.203 12.2592 288.213 7.85496C280.223 3.45071 270.812 2.39558 262.046 4.92105Z" fill="white"/>
<path d="M115.793 124.627C115.135 124.817 114.427 124.737 113.827 124.406C113.227 124.076 112.782 123.52 112.591 122.862L111.153 117.893C111.059 117.567 111.03 117.226 111.067 116.888C111.105 116.551 111.209 116.224 111.373 115.926C111.537 115.629 111.758 115.367 112.023 115.155C112.288 114.943 112.593 114.785 112.919 114.691C113.245 114.596 113.587 114.567 113.924 114.605C114.262 114.642 114.588 114.746 114.886 114.91C115.183 115.074 115.445 115.295 115.657 115.56C115.869 115.825 116.027 116.13 116.122 116.456L117.559 121.424C117.749 122.083 117.669 122.79 117.338 123.391C117.007 123.991 116.452 124.436 115.793 124.627Z" fill="#3F3D56"/>
<path d="M123.163 150.102C122.505 150.292 121.797 150.213 121.197 149.882C120.597 149.551 120.152 148.995 119.961 148.337L116.004 134.661C115.91 134.335 115.881 133.993 115.918 133.656C115.956 133.318 116.06 132.991 116.224 132.694C116.388 132.397 116.608 132.134 116.874 131.922C117.139 131.71 117.443 131.553 117.77 131.458C118.096 131.364 118.437 131.335 118.775 131.372C119.112 131.41 119.439 131.514 119.737 131.678C120.034 131.842 120.296 132.063 120.508 132.328C120.72 132.593 120.878 132.897 120.972 133.224L124.929 146.9C125.119 147.558 125.039 148.266 124.708 148.866C124.377 149.466 123.822 149.911 123.163 150.102Z" fill="#3F3D56"/>
<path d="M129.088 170.583C128.43 170.772 127.722 170.693 127.122 170.362C126.522 170.031 126.077 169.476 125.886 168.817L121.929 155.141C121.739 154.483 121.818 153.775 122.149 153.174C122.48 152.574 123.036 152.129 123.695 151.939C124.354 151.748 125.061 151.827 125.662 152.158C126.262 152.489 126.707 153.045 126.897 153.704L130.854 167.38C131.044 168.039 130.964 168.746 130.633 169.346C130.302 169.947 129.747 170.391 129.088 170.583Z" fill="#3F3D56"/>
<path d="M329.55 100.475C328.891 100.665 328.184 100.585 327.584 100.254C326.983 99.9234 326.539 99.3677 326.347 98.7094L316.693 65.3397C316.503 64.6809 316.582 63.9733 316.913 63.3727C317.244 62.7721 317.8 62.3276 318.459 62.137C319.118 61.9464 319.825 62.0253 320.426 62.3564C321.026 62.6875 321.471 63.2436 321.662 63.9024L331.316 97.2721C331.505 97.9309 331.426 98.6381 331.095 99.2385C330.764 99.8389 330.208 100.284 329.55 100.475Z" fill="#3F3D56"/>
<path d="M164.849 118.65C164.62 118.717 164.374 118.696 164.159 118.592L151.615 112.549C151.5 112.494 151.397 112.417 151.312 112.322C151.227 112.227 151.162 112.116 151.12 111.996C151.078 111.875 151.06 111.748 151.067 111.621C151.074 111.494 151.107 111.369 151.162 111.255L157.205 98.7101C157.26 98.5954 157.338 98.4926 157.433 98.4078C157.528 98.323 157.638 98.2577 157.759 98.2156C157.879 98.1736 158.006 98.1556 158.133 98.1628C158.26 98.17 158.385 98.2021 158.5 98.2574C158.614 98.3126 158.717 98.39 158.802 98.4849C158.887 98.5799 158.952 98.6907 158.994 98.8109C159.036 98.9311 159.054 99.0584 159.047 99.1855C159.04 99.3127 159.008 99.4372 158.952 99.5519L153.33 111.223L165.001 116.845C165.178 116.93 165.325 117.067 165.422 117.238C165.519 117.408 165.563 117.604 165.546 117.8C165.53 117.996 165.455 118.182 165.33 118.334C165.206 118.485 165.038 118.596 164.849 118.65Z" fill="#F76323"/>
<path d="M171.98 116.561C171.788 116.616 171.584 116.612 171.396 116.547C171.207 116.482 171.043 116.361 170.926 116.2C170.808 116.039 170.744 115.846 170.74 115.646C170.737 115.447 170.795 115.252 170.906 115.086L178.162 104.354L167.43 97.0983C167.324 97.0271 167.234 96.9357 167.163 96.8294C167.093 96.7231 167.044 96.6039 167.02 96.4788C166.995 96.3536 166.996 96.2249 167.022 96.0999C167.047 95.975 167.097 95.8563 167.168 95.7507C167.24 95.645 167.331 95.5545 167.438 95.4843C167.544 95.4141 167.664 95.3657 167.789 95.3416C167.914 95.3176 168.043 95.3185 168.168 95.3442C168.292 95.37 168.411 95.4202 168.517 95.4919L180.052 103.291C180.157 103.362 180.248 103.454 180.318 103.56C180.388 103.666 180.437 103.785 180.461 103.91C180.485 104.035 180.484 104.164 180.459 104.289C180.433 104.413 180.383 104.532 180.312 104.637L172.513 116.173C172.386 116.361 172.197 116.498 171.98 116.561Z" fill="#F76323"/>
<path d="M299.023 93.491L151.043 136.302C148.761 136.959 146.311 136.685 144.23 135.538C142.15 134.391 140.61 132.466 139.947 130.185L131.632 101.442C130.974 99.1597 131.249 96.7096 132.395 94.6294C133.542 92.5491 135.467 91.0087 137.748 90.346L285.727 47.5354C288.01 46.8778 290.46 47.1525 292.54 48.2992C294.621 49.4459 296.161 51.3709 296.824 53.6519L305.139 82.3948C305.797 84.6773 305.522 87.1275 304.375 89.2077C303.229 91.2879 301.304 92.8284 299.023 93.491ZM138.107 91.588C136.156 92.1551 134.508 93.4733 133.527 95.2533C132.546 97.0333 132.311 99.1298 132.874 101.083L141.189 129.826C141.756 131.778 143.074 133.425 144.854 134.406C146.634 135.387 148.731 135.622 150.684 135.06L298.663 92.249C300.615 91.6819 302.262 90.3638 303.243 88.5838C304.225 86.8037 304.46 84.7072 303.897 82.7541L295.582 54.0112C295.015 52.0594 293.696 50.4122 291.916 49.431C290.136 48.4499 288.04 48.2148 286.087 48.7774L138.107 91.588Z" fill="#3F3D56"/>
<path d="M222.01 86.1588L197.169 93.3454C196.511 93.536 195.803 93.457 195.202 93.1259C194.602 92.7949 194.157 92.2387 193.967 91.5799C193.776 90.9211 193.855 90.2135 194.186 89.6129C194.517 89.0123 195.073 88.5678 195.732 88.3772L220.573 81.1907C221.232 81.0001 221.939 81.079 222.54 81.4101C223.141 81.7412 223.585 82.2973 223.776 82.9561C223.966 83.6149 223.887 84.3225 223.556 84.9231C223.225 85.5238 222.669 85.9682 222.01 86.1588Z" fill="#E6E6E6"/>
<path d="M279.371 84.3703L200.501 107.187C199.842 107.378 199.135 107.299 198.534 106.968C197.933 106.637 197.489 106.081 197.298 105.422C197.108 104.763 197.186 104.056 197.518 103.455C197.849 102.854 198.405 102.41 199.064 102.219L277.934 79.4021C278.592 79.2115 279.3 79.2904 279.901 79.6215C280.501 79.9526 280.946 80.5087 281.136 81.1675C281.327 81.8264 281.248 82.5339 280.917 83.1345C280.586 83.7352 280.03 84.1797 279.371 84.3703Z" fill="#E6E6E6"/>
<path d="M220.939 315.174C220.71 315.241 220.464 315.22 220.249 315.116L207.705 309.073C207.59 309.017 207.487 308.94 207.402 308.845C207.318 308.75 207.252 308.639 207.21 308.519C207.168 308.399 207.15 308.272 207.157 308.144C207.165 308.017 207.197 307.893 207.252 307.778L213.295 295.234C213.407 295.002 213.606 294.824 213.849 294.739C214.092 294.654 214.358 294.669 214.59 294.781C214.822 294.892 214.999 295.092 215.084 295.334C215.169 295.577 215.154 295.844 215.043 296.075L209.42 307.746L221.091 313.369C221.268 313.454 221.415 313.591 221.512 313.761C221.61 313.932 221.653 314.128 221.637 314.323C221.62 314.519 221.545 314.705 221.42 314.857C221.296 315.009 221.128 315.119 220.939 315.174Z" fill="#F76323"/>
<path d="M228.07 313.085C227.879 313.14 227.675 313.135 227.486 313.071C227.297 313.006 227.133 312.885 227.016 312.724C226.899 312.563 226.834 312.37 226.83 312.17C226.827 311.971 226.885 311.775 226.996 311.61L234.252 300.878L223.52 293.621C223.308 293.477 223.161 293.254 223.112 293.002C223.064 292.75 223.117 292.488 223.261 292.276C223.405 292.063 223.628 291.916 223.88 291.867C224.132 291.818 224.394 291.871 224.607 292.015L236.142 299.814C236.355 299.958 236.502 300.181 236.551 300.434C236.6 300.686 236.546 300.948 236.402 301.161L228.603 312.696C228.477 312.884 228.288 313.022 228.07 313.085Z" fill="#F76323"/>
<path d="M366.935 328.238L218.956 371.048C216.673 371.706 214.223 371.431 212.143 370.285C210.063 369.138 208.522 367.213 207.859 364.932L186.429 290.854C185.771 288.572 186.046 286.122 187.192 284.041C188.339 281.961 190.264 280.421 192.545 279.758L340.525 236.947C342.807 236.29 345.257 236.564 347.337 237.711C349.418 238.858 350.958 240.783 351.621 243.064L373.052 317.142C373.709 319.424 373.434 321.874 372.288 323.954C371.141 326.035 369.216 327.575 366.935 328.238ZM192.905 281C190.953 281.567 189.305 282.885 188.324 284.665C187.343 286.445 187.108 288.542 187.671 290.495L209.101 364.573C209.669 366.524 210.987 368.172 212.767 369.153C214.547 370.134 216.643 370.369 218.596 369.806L366.576 326.996C368.528 326.429 370.175 325.111 371.156 323.331C372.137 321.55 372.372 319.454 371.81 317.501L350.379 243.423C349.812 241.471 348.494 239.824 346.714 238.843C344.934 237.862 342.837 237.627 340.884 238.189L192.905 281Z" fill="#3F3D56"/>
<path d="M278.1 282.682L253.259 289.869C252.933 289.964 252.591 289.993 252.253 289.956C251.915 289.919 251.588 289.815 251.291 289.651C250.993 289.487 250.73 289.266 250.518 289.001C250.306 288.736 250.148 288.431 250.053 288.104C249.959 287.778 249.93 287.436 249.967 287.098C250.005 286.76 250.109 286.433 250.273 286.136C250.438 285.838 250.659 285.576 250.925 285.364C251.191 285.152 251.496 284.995 251.822 284.901L276.663 277.714C277.322 277.525 278.028 277.604 278.628 277.935C279.228 278.267 279.672 278.822 279.862 279.481C280.053 280.139 279.974 280.846 279.644 281.446C279.313 282.046 278.758 282.491 278.1 282.682Z" fill="#E6E6E6"/>
<path d="M335.461 280.894L256.591 303.711C256.265 303.806 255.923 303.835 255.585 303.798C255.247 303.761 254.92 303.657 254.622 303.493C254.325 303.329 254.062 303.108 253.85 302.843C253.638 302.577 253.48 302.273 253.385 301.946C253.291 301.62 253.262 301.278 253.3 300.94C253.337 300.602 253.441 300.276 253.606 299.978C253.77 299.68 253.991 299.418 254.257 299.206C254.522 298.994 254.827 298.837 255.154 298.743L334.024 275.926C334.682 275.735 335.39 275.814 335.991 276.145C336.591 276.476 337.036 277.032 337.226 277.691C337.417 278.35 337.338 279.057 337.007 279.658C336.676 280.259 336.12 280.703 335.461 280.894Z" fill="#E6E6E6"/>
<path d="M162.899 173.344L155.651 175.441C154.663 175.726 154.094 176.759 154.379 177.747L154.984 179.835C155.269 180.823 156.302 181.392 157.29 181.106L164.538 179.009C165.526 178.723 166.095 177.691 165.809 176.703L165.205 174.615C164.919 173.627 163.887 173.058 162.899 173.344Z" fill="#E6E6E6"/>
<path d="M221.914 156.27L214.666 158.367C213.678 158.653 213.109 159.686 213.395 160.673L213.999 162.762C214.285 163.749 215.317 164.319 216.305 164.033L223.553 161.936C224.541 161.65 225.11 160.618 224.824 159.63L224.22 157.542C223.934 156.554 222.902 155.985 221.914 156.27Z" fill="#F76323"/>
<path d="M238.635 151.433L231.387 153.53C230.399 153.816 229.83 154.848 230.116 155.836L230.72 157.924C231.006 158.912 232.038 159.481 233.026 159.195L240.274 157.098C241.262 156.813 241.831 155.78 241.545 154.792L240.941 152.704C240.655 151.716 239.623 151.147 238.635 151.433Z" fill="#E6E6E6"/>
<path d="M205.725 160.442L171.566 170.324C170.579 170.61 170.009 171.643 170.295 172.63L170.899 174.719C171.185 175.706 172.218 176.276 173.205 175.99L207.364 166.108C208.352 165.822 208.921 164.789 208.635 163.802L208.031 161.713C207.746 160.725 206.713 160.156 205.725 160.442Z" fill="#E6E6E6"/>
<path d="M284.412 137.678L250.253 147.56C249.265 147.846 248.696 148.878 248.982 149.866L249.586 151.954C249.872 152.942 250.904 153.511 251.892 153.225L286.051 143.343C287.039 143.057 287.608 142.025 287.322 141.037L286.718 138.949C286.432 137.961 285.4 137.392 284.412 137.678Z" fill="#F2F2F2"/>
<path d="M166.81 186.069L159.562 188.166C158.574 188.452 158.005 189.484 158.29 190.472L158.895 192.56C159.18 193.548 160.213 194.117 161.201 193.831L168.449 191.734C169.437 191.449 170.006 190.416 169.72 189.428L169.116 187.34C168.83 186.352 167.798 185.783 166.81 186.069Z" fill="#E6E6E6"/>
<path d="M225.825 168.996L218.577 171.093C217.589 171.379 217.02 172.411 217.306 173.399L217.91 175.487C218.196 176.475 219.228 177.044 220.216 176.758L227.464 174.661C228.452 174.375 229.021 173.343 228.735 172.355L228.131 170.267C227.845 169.279 226.813 168.71 225.825 168.996Z" fill="#F76323"/>
<path d="M242.546 164.158L235.298 166.255C234.31 166.541 233.741 167.574 234.027 168.561L234.631 170.65C234.917 171.637 235.949 172.207 236.937 171.921L244.185 169.824C245.173 169.538 245.742 168.506 245.456 167.518L244.852 165.429C244.566 164.442 243.534 163.873 242.546 164.158Z" fill="#E6E6E6"/>
<path d="M209.636 173.167L175.477 183.05C174.49 183.335 173.92 184.368 174.206 185.356L174.81 187.444C175.096 188.432 176.129 189.001 177.116 188.715L211.275 178.833C212.263 178.547 212.832 177.515 212.546 176.527L211.942 174.439C211.657 173.451 210.624 172.882 209.636 173.167Z" fill="#E6E6E6"/>
<path d="M288.325 150.401L254.166 160.284C253.178 160.57 252.609 161.602 252.895 162.59L253.499 164.678C253.785 165.666 254.817 166.235 255.805 165.949L289.964 156.067C290.952 155.781 291.521 154.749 291.235 153.761L290.631 151.673C290.345 150.685 289.313 150.116 288.325 150.401Z" fill="#F2F2F2"/>
<path d="M201.772 189.811L194.524 191.908C193.536 192.194 192.967 193.226 193.253 194.214L193.857 196.302C194.143 197.29 195.175 197.859 196.163 197.574L203.411 195.477C204.399 195.191 204.968 194.158 204.682 193.171L204.078 191.082C203.792 190.095 202.76 189.525 201.772 189.811Z" fill="#E6E6E6"/>
<path d="M260.787 172.738L253.539 174.835C252.551 175.121 251.982 176.153 252.268 177.141L252.872 179.229C253.158 180.217 254.19 180.786 255.178 180.5L262.426 178.403C263.414 178.118 263.983 177.085 263.698 176.097L263.093 174.009C262.808 173.021 261.775 172.452 260.787 172.738Z" fill="#F76323"/>
<path d="M277.508 167.901L270.26 169.998C269.272 170.283 268.703 171.316 268.989 172.304L269.593 174.392C269.879 175.38 270.911 175.949 271.899 175.663L279.147 173.566C280.135 173.28 280.704 172.248 280.418 171.26L279.814 169.172C279.529 168.184 278.496 167.615 277.508 167.901Z" fill="#E6E6E6"/>
<path d="M244.598 176.91L210.44 186.792C209.452 187.078 208.883 188.11 209.168 189.098L209.773 191.186C210.058 192.174 211.091 192.743 212.079 192.457L246.237 182.575C247.225 182.289 247.794 181.257 247.509 180.269L246.904 178.181C246.619 177.193 245.586 176.624 244.598 176.91Z" fill="#E6E6E6"/>
<path d="M323.287 154.144L289.128 164.026C288.141 164.312 287.572 165.344 287.857 166.332L288.461 168.42C288.747 169.408 289.78 169.977 290.767 169.691L324.926 159.809C325.914 159.523 326.483 158.491 326.197 157.503L325.593 155.415C325.308 154.427 324.275 153.858 323.287 154.144Z" fill="#F2F2F2"/>
<path d="M181.157 236.388L173.909 238.485C172.921 238.771 172.352 239.803 172.638 240.791L173.242 242.879C173.528 243.867 174.56 244.436 175.548 244.151L182.796 242.054C183.784 241.768 184.353 240.735 184.068 239.748L183.463 237.659C183.178 236.671 182.145 236.102 181.157 236.388Z" fill="#F76323"/>
<path d="M197.878 231.551L190.63 233.648C189.642 233.934 189.073 234.966 189.359 235.954L189.963 238.042C190.249 239.03 191.281 239.599 192.269 239.313L199.517 237.216C200.505 236.93 201.074 235.898 200.788 234.91L200.184 232.822C199.899 231.834 198.866 231.265 197.878 231.551Z" fill="#E6E6E6"/>
<path d="M243.929 218.74L209.77 228.622C208.782 228.908 208.213 229.941 208.499 230.928L209.103 233.017C209.389 234.004 210.421 234.573 211.409 234.288L245.568 224.405C246.555 224.12 247.125 223.087 246.839 222.1L246.235 220.011C245.949 219.023 244.916 218.454 243.929 218.74Z" fill="#F2F2F2"/>
<path d="M220.521 211.143L213.272 213.24C212.285 213.526 211.715 214.559 212.001 215.546L212.605 217.635C212.891 218.623 213.924 219.192 214.911 218.906L222.16 216.809C223.147 216.523 223.717 215.491 223.431 214.503L222.827 212.415C222.541 211.427 221.508 210.858 220.521 211.143Z" fill="#F76323"/>
<path d="M237.244 206.305L229.995 208.402C229.007 208.687 228.438 209.72 228.724 210.708L229.328 212.796C229.614 213.784 230.646 214.353 231.634 214.067L238.883 211.97C239.87 211.684 240.44 210.652 240.154 209.664L239.55 207.576C239.264 206.588 238.231 206.019 237.244 206.305Z" fill="#F76323"/>
<path d="M204.605 216.26L170.446 226.142C169.458 226.428 168.889 227.46 169.175 228.448L169.779 230.536C170.065 231.524 171.097 232.093 172.085 231.807L206.244 221.925C207.232 221.639 207.801 220.607 207.515 219.619L206.911 217.531C206.625 216.543 205.593 215.974 204.605 216.26Z" fill="#E6E6E6"/>
<path d="M283.294 193.494L249.135 203.376C248.147 203.662 247.578 204.694 247.864 205.682L248.468 207.771C248.754 208.758 249.786 209.327 250.774 209.042L284.933 199.159C285.921 198.873 286.49 197.841 286.204 196.853L285.6 194.765C285.314 193.777 284.282 193.208 283.294 193.494Z" fill="#F2F2F2"/>
<path d="M205.216 201.714L197.967 203.811C196.98 204.097 196.41 205.13 196.696 206.117L197.3 208.206C197.586 209.193 198.619 209.763 199.606 209.477L206.855 207.38C207.843 207.094 208.412 206.062 208.126 205.074L207.522 202.986C207.236 201.998 206.204 201.429 205.216 201.714Z" fill="#E6E6E6"/>
<path d="M264.231 184.641L256.983 186.738C255.995 187.024 255.426 188.056 255.712 189.044L256.316 191.132C256.601 192.12 257.634 192.689 258.622 192.404L265.87 190.307C266.858 190.021 267.427 188.988 267.141 188.001L266.537 185.912C266.251 184.925 265.219 184.355 264.231 184.641Z" fill="#F76323"/>
<path d="M280.952 179.804L273.704 181.901C272.716 182.187 272.147 183.219 272.432 184.207L273.037 186.295C273.322 187.283 274.355 187.852 275.343 187.566L282.591 185.469C283.579 185.183 284.148 184.151 283.862 183.163L283.258 181.075C282.972 180.087 281.94 179.518 280.952 179.804Z" fill="#E6E6E6"/>
<path d="M248.315 189.757L214.156 199.64C213.169 199.925 212.6 200.958 212.885 201.946L213.489 204.034C213.775 205.022 214.808 205.591 215.795 205.305L249.954 195.423C250.942 195.137 251.511 194.105 251.225 193.117L250.621 191.029C250.336 190.041 249.303 189.472 248.315 189.757Z" fill="#E6E6E6"/>
<path d="M327.002 166.993L292.843 176.875C291.856 177.161 291.286 178.194 291.572 179.181L292.176 181.27C292.462 182.257 293.495 182.827 294.482 182.541L328.641 172.659C329.629 172.373 330.198 171.34 329.912 170.353L329.308 168.264C329.022 167.276 327.99 166.707 327.002 166.993Z" fill="#F2F2F2"/>
<path d="M187.472 212.46C189.079 212.46 190.381 211.158 190.381 209.551C190.381 207.945 189.079 206.642 187.472 206.642C185.865 206.642 184.563 207.945 184.563 209.551C184.563 211.158 185.865 212.46 187.472 212.46Z" fill="#F76323"/>
<path d="M184.058 200.661C185.665 200.661 186.968 199.359 186.968 197.752C186.968 196.145 185.665 194.843 184.058 194.843C182.452 194.843 181.149 196.145 181.149 197.752C181.149 199.359 182.452 200.661 184.058 200.661Z" fill="#F76323"/>
<path d="M204.935 30.0886L185.683 35.6581C185.272 35.7753 184.831 35.7248 184.457 35.5177C184.083 35.3105 183.806 34.9637 183.687 34.553C183.569 34.1423 183.617 33.7012 183.823 33.3264C184.029 32.9516 184.374 32.6735 184.785 32.5531L204.036 26.9835C204.24 26.9236 204.454 26.9045 204.666 26.9275C204.877 26.9504 205.082 27.0149 205.269 27.1173C205.456 27.2196 205.62 27.3578 205.753 27.5239C205.886 27.69 205.985 27.8807 206.044 28.0851C206.103 28.2895 206.122 28.5036 206.098 28.715C206.074 28.9265 206.009 29.1311 205.905 29.3173C205.802 29.5034 205.664 29.6674 205.497 29.7998C205.33 29.9321 205.139 30.0303 204.935 30.0886Z" fill="white"/>
<path d="M214.422 26.9544C215.136 26.9544 215.715 26.3755 215.715 25.6614C215.715 24.9473 215.136 24.3684 214.422 24.3684C213.708 24.3684 213.129 24.9473 213.129 25.6614C213.129 26.3755 213.708 26.9544 214.422 26.9544Z" fill="white"/>
<path d="M22.2228 408.49C22.0466 408.002 21.9244 407.497 21.8586 406.983C21.8513 406.946 21.8484 406.907 21.85 406.869C21.5208 403.739 23.1367 400.837 24.9676 397.892L27.4778 393.859C27.7115 393.483 28.0521 393.186 28.4559 393.004C28.8597 392.823 29.3084 392.767 29.7444 392.842C30.1805 392.918 30.5841 393.122 30.9037 393.428C31.2233 393.734 31.4442 394.128 31.5382 394.561C31.6746 395.187 31.811 395.822 31.9413 396.455C33.2927 395.331 34.7037 394.291 35.9393 393.392C39.202 391.024 42.4638 388.654 45.7247 386.281C46.0822 386.02 46.5092 385.873 46.9512 385.856C47.3932 385.84 47.8299 385.956 48.2055 386.19C48.5812 386.423 48.8786 386.763 49.0597 387.167C49.2408 387.57 49.2975 388.019 49.2223 388.454L48.6016 392.053C47.7774 396.827 46.8434 402.238 44.6334 406.97C44.3859 407.511 44.121 408.039 43.8467 408.536L43.7546 408.703H22.2999L22.2228 408.49Z" fill="#F0F0F0"/>
<path d="M0.765769 409.167L399.234 409.366C399.438 409.365 399.632 409.283 399.776 409.139C399.919 408.995 400 408.8 400 408.596C400 408.393 399.919 408.198 399.776 408.054C399.632 407.909 399.438 407.828 399.234 407.827L0.765769 407.628C0.562286 407.629 0.367488 407.71 0.223963 407.855C0.0804385 407.999 -0.00012207 408.194 -0.00012207 408.398C-0.00012207 408.601 0.0804385 408.796 0.223963 408.941C0.367488 409.085 0.562286 409.166 0.765769 409.167Z" fill="#CACACA"/>
<path d="M275.651 336.464C273.553 337.071 271.323 337.042 269.241 336.381C267.16 335.72 265.321 334.457 263.958 332.752C262.594 331.046 261.767 328.974 261.581 326.798C261.395 324.622 261.859 322.44 262.913 320.528C263.967 318.615 265.565 317.059 267.504 316.054C269.443 315.05 271.636 314.643 273.806 314.885C275.977 315.127 278.026 316.007 279.696 317.414C281.366 318.821 282.582 320.692 283.189 322.79C284.002 325.602 283.665 328.623 282.252 331.188C280.838 333.752 278.464 335.65 275.651 336.464Z" fill="#E6E6E6"/>
<path d="M276.465 323.601L273.326 324.509L272.418 321.37C272.378 321.233 272.312 321.105 272.222 320.993C272.133 320.881 272.023 320.788 271.897 320.719C271.644 320.58 271.346 320.546 271.069 320.627C270.791 320.707 270.557 320.894 270.418 321.147C270.278 321.4 270.245 321.698 270.325 321.976L271.233 325.114L268.095 326.022C267.818 326.103 267.584 326.29 267.445 326.543C267.306 326.796 267.273 327.094 267.353 327.371C267.433 327.648 267.62 327.882 267.873 328.022C268.125 328.161 268.423 328.195 268.7 328.115L271.839 327.207L272.747 330.346C272.787 330.483 272.853 330.611 272.942 330.723C273.032 330.835 273.142 330.928 273.267 330.997C273.393 331.066 273.53 331.109 273.672 331.125C273.814 331.141 273.958 331.129 274.096 331.089C274.233 331.049 274.361 330.983 274.473 330.894C274.585 330.804 274.678 330.694 274.747 330.569C274.816 330.443 274.86 330.306 274.876 330.164C274.891 330.021 274.879 329.878 274.839 329.74L273.931 326.602L277.07 325.693C277.347 325.613 277.581 325.426 277.72 325.173C277.859 324.92 277.892 324.622 277.812 324.345C277.732 324.068 277.545 323.834 277.292 323.694C277.04 323.555 276.742 323.521 276.465 323.601Z" fill="white"/>
<path d="M306.681 327.487C304.584 328.094 302.353 328.065 300.272 327.404C298.19 326.743 296.352 325.48 294.988 323.774C293.625 322.069 292.798 319.997 292.612 317.821C292.426 315.645 292.889 313.463 293.944 311.551C294.998 309.638 296.595 308.081 298.534 307.077C300.473 306.072 302.667 305.666 304.837 305.908C307.007 306.15 309.057 307.03 310.727 308.437C312.397 309.844 313.612 311.715 314.219 313.812C315.033 316.625 314.696 319.646 313.282 322.211C311.869 324.775 309.494 326.673 306.681 327.487Z" fill="#E6E6E6"/>
<path d="M307.495 314.624L304.356 315.532L302.264 316.137L299.125 317.045C298.848 317.126 298.614 317.313 298.474 317.566C298.335 317.819 298.301 318.117 298.382 318.394C298.462 318.672 298.649 318.906 298.902 319.045C299.155 319.185 299.453 319.218 299.731 319.138L302.869 318.23L304.962 317.624L308.1 316.716C308.238 316.677 308.366 316.61 308.478 316.521C308.59 316.432 308.684 316.321 308.753 316.196C308.822 316.071 308.866 315.933 308.882 315.791C308.898 315.648 308.885 315.504 308.846 315.367C308.806 315.229 308.739 315.101 308.65 314.989C308.56 314.877 308.45 314.784 308.324 314.715C308.199 314.646 308.061 314.603 307.919 314.587C307.777 314.571 307.633 314.584 307.495 314.624Z" fill="white"/>
<path d="M337.712 318.51C335.614 319.117 333.383 319.088 331.302 318.427C329.221 317.766 327.382 316.503 326.019 314.797C324.655 313.091 323.828 311.02 323.642 308.844C323.456 306.668 323.92 304.486 324.974 302.574C326.028 300.661 327.626 299.104 329.565 298.1C331.504 297.095 333.697 296.688 335.867 296.93C338.038 297.173 340.087 298.053 341.757 299.46C343.427 300.867 344.643 302.737 345.249 304.835C346.063 307.648 345.726 310.669 344.313 313.234C342.899 315.798 340.525 317.696 337.712 318.51Z" fill="#E6E6E6"/>
<path d="M340.464 305.674L336.188 302.155C336.094 302.077 335.985 302.019 335.869 301.984C335.752 301.948 335.63 301.936 335.508 301.948C335.387 301.959 335.269 301.995 335.162 302.052C335.054 302.11 334.959 302.188 334.881 302.282C334.804 302.376 334.746 302.484 334.71 302.601C334.675 302.718 334.662 302.84 334.674 302.961C334.686 303.083 334.722 303.2 334.779 303.308C334.836 303.416 334.914 303.511 335.008 303.588L337.774 305.864L335.387 306.555L333.294 307.16L330.156 308.068C329.878 308.148 329.644 308.336 329.505 308.589C329.365 308.842 329.332 309.14 329.412 309.417C329.492 309.694 329.68 309.929 329.933 310.068C330.186 310.208 330.484 310.241 330.761 310.161L333.9 309.253L335.992 308.647L338.475 307.929L337.296 311.497C337.22 311.731 337.239 311.985 337.35 312.205C337.46 312.424 337.654 312.591 337.887 312.668C338.121 312.745 338.375 312.726 338.595 312.616C338.815 312.506 338.982 312.313 339.059 312.08L340.796 306.821C340.844 306.617 340.838 306.405 340.78 306.204C340.722 306.003 340.613 305.821 340.464 305.674Z" fill="white"/>
</g>
<defs>
<clipPath id="clip0_1_84">
<rect width="400" height="409.366" fill="white"/>
</clipPath>
</defs>
</svg>
